<svg width="18" height="17" viewBox="0 0 18 17" fill="none" xmlns="http://www.w3.org/2000/svg">
<path fill-rule="evenodd" clip-rule="evenodd" d="M1.644 2.10758C1.644 1.71958 1.95854 1.40503 2.34655 1.40503H6.14034V2.81014H3.0491V5.90137H1.644V2.10758ZM14.2899 2.81014H11.1987V1.40503H14.9925C15.3805 1.40503 15.6951 1.71958 15.6951 2.10758V5.90137H14.2899V2.81014ZM3.0491 14.051V10.9597H1.644V14.7535C1.644 15.1416 1.95854 15.4561 2.34655 15.4561H6.14034V14.051H3.0491ZM14.2899 14.051V10.9597H15.6951V14.7535C15.6951 15.1416 15.3805 15.4561 14.9925 15.4561H11.1987V14.051H14.2899ZM15.6951 9.13311H1.644V7.72801H15.6951V9.13311Z" fill="#444444"/>
</svg>
