<svg width="18" height="16" viewBox="0 0 18 16" fill="none" xmlns="http://www.w3.org/2000/svg">
<path d="M8.55139 0C8.37903 0.00246767 8.21444 0.0720588 8.09259 0.19398L0.308238 7.97833C0.184071 8.10246 0.114295 8.27083 0.114258 8.4464V11.2548C0.114258 11.4304 0.184009 11.5988 0.308167 11.7229C0.432325 11.8471 0.600719 11.9169 0.776305 11.9169H3.58471C3.76028 11.9168 3.92865 11.847 4.05278 11.7229L11.8371 3.93918C11.9612 3.81503 12.031 3.64667 12.031 3.47111C12.031 3.29556 11.9612 3.1272 11.8371 3.00305L9.02872 0.194642C8.96624 0.132127 8.89188 0.0827552 8.81001 0.0494397C8.72814 0.0161242 8.64043 -0.000461021 8.55205 0.000661999L8.55139 0ZM8.56066 1.59818L10.4329 3.47045L3.31128 10.5928H1.43835V8.72049L8.56066 1.59818Z" fill="#444444"/>
<path d="M9.80396 9.26885C9.63182 9.27415 9.4683 9.34631 9.34847 9.46945L6.30835 12.5063C6.10235 12.7146 5.94598 12.9667 5.85087 13.2438H0.786213C0.610714 13.2438 0.442405 13.3135 0.318309 13.4376C0.194213 13.5617 0.124496 13.73 0.124496 13.9055C0.124496 14.081 0.194213 14.2493 0.318309 14.3734C0.442405 14.4975 0.610714 14.5672 0.786213 14.5672H5.84823C5.9429 14.8393 6.09252 15.0969 6.30835 15.3127C6.68256 15.6822 7.1873 15.8894 7.71321 15.8894C8.23913 15.8894 8.74387 15.6822 9.11808 15.3127L10.9917 13.4404C11.0791 13.645 11.1969 13.8078 11.3783 13.9899C11.7522 14.3595 12.2568 14.5668 12.7825 14.5668C13.3083 14.5668 13.8128 14.3595 14.1867 13.9899L14.9395 13.2378H16.6555C17.5506 13.2504 17.5506 11.9025 16.6555 11.9151H14.6654C14.4899 11.9149 14.3215 11.9844 14.1973 12.1084L13.2506 13.0544C13.1902 13.1178 13.1175 13.1682 13.0371 13.2026C12.9566 13.2371 12.87 13.2548 12.7825 13.2548C12.695 13.2548 12.6084 13.2371 12.5279 13.2026C12.4475 13.1682 12.3748 13.1178 12.3144 13.0544C12.251 12.9941 12.2006 12.9216 12.1661 12.8412C12.1316 12.7608 12.1138 12.6742 12.1138 12.5867C12.1138 12.4992 12.1316 12.4126 12.1661 12.3322C12.2006 12.2518 12.251 12.1793 12.3144 12.119L12.7064 11.7277C13.3042 11.104 12.3945 10.1951 11.7702 10.7922L11.3783 11.1835L8.18194 14.3772C8.12137 14.4405 8.04862 14.4909 7.96806 14.5253C7.8875 14.5597 7.80081 14.5774 7.71321 14.5774C7.62561 14.5774 7.53892 14.5597 7.45836 14.5253C7.37781 14.4909 7.30505 14.4405 7.24448 14.3772C7.18108 14.3169 7.13061 14.2444 7.09611 14.164C7.06162 14.0835 7.04383 13.997 7.04383 13.9095C7.04383 13.822 7.06162 13.7354 7.09611 13.655C7.13061 13.5746 7.18108 13.502 7.24448 13.4417L10.2846 10.4049C10.7176 9.98386 10.4077 9.25164 9.80396 9.26885Z" fill="#444444"/>
</svg>
